<svg xmlns="http://www.w3.org/2000/svg" width="224.907" height="66.862" viewBox="0 0 224.907 66.862"><g data-name="Group 545" fill="#fff"><path data-name="Path 315" d="M7.559 40.917a7.562 7.562 0 0 1-5.539-2.25C-.059 36.585 0 34.017 0 30.47s-.058-6.115 2.02-8.194a7.562 7.562 0 0 1 5.539-2.25 7.242 7.242 0 0 1 7.559 6.491h-4.067a3.4 3.4 0 0 0-3.46-2.916 3.322 3.322 0 0 0-2.569 1.066c-.778.864-1.008 1.845-1.008 5.8s.229 4.931 1.008 5.8a3.306 3.306 0 0 0 2.568 1.069 3.4 3.4 0 0 0 3.46-2.916h4.068a7.256 7.256 0 0 1-7.559 6.488"/><path data-name="Path 316" d="M30.178 38.66a7.982 7.982 0 0 1-11.109 0c-2.079-2.079-2.02-4.643-2.02-8.194s-.058-6.115 2.02-8.194a7.982 7.982 0 0 1 11.109 0c2.079 2.079 2.047 4.643 2.047 8.194s.031 6.115-2.047 8.194m-2.974-13.962a3.342 3.342 0 0 0-2.569-1.1 3.386 3.386 0 0 0-2.6 1.1c-.778.864-.981 1.818-.981 5.768s.2 4.9.981 5.768a3.4 3.4 0 0 0 2.6 1.1 3.333 3.333 0 0 0 2.569-1.1c.778-.864 1.008-1.818 1.008-5.768s-.229-4.9-1.008-5.768"/><path data-name="Path 317" d="M42.957 40.738h-3l-6.782-20.54h4.153l4.126 13.386 4.126-13.386h4.185Z"/><path data-name="Path 318" d="M51.38 40.738v-20.54h13.53v3.577h-9.52v4.819h8.108v3.577H55.39v4.99h9.521v3.577Z"/><path data-name="Path 319" d="M80.424 40.738 72.289 28.13v12.608h-4.005v-20.54h3.577l8.135 12.576V20.198h4.009v20.54Z"/><path data-name="Path 320" d="M96.096 23.775v16.963h-4.014V23.775h-5.363v-3.577h14.74v3.577Z"/><path data-name="Path 321" d="m115.623 40.738-4.009-8.194h-2.884v8.194h-4.009v-20.54h8.05c4.185 0 6.664 2.857 6.664 6.29a5.531 5.531 0 0 1-3.748 5.395l4.585 8.855h-4.643Zm-3.118-16.963h-3.78v5.422h3.78a2.72 2.72 0 1 0 0-5.426"/><path data-name="Path 322" d="M131.439 32.315v8.423h-3.982v-8.423l-6.178-12.117h4.36l3.834 8.279 3.78-8.279h4.36Z"/><path data-name="Rectangle 149" d="M146.557 20.207h.972v41.904h-.972z"/><path data-name="Path 323" d="M5.822 62.12H.009V47.168h5.624c2.605 0 4.409 1.489 4.409 3.991a3.428 3.428 0 0 1-2.2 3.276 3.62 3.62 0 0 1 2.434 3.55c0 2.709-1.8 4.135-4.45 4.135m-.315-13.521H1.602v5.188h3.905c1.66 0 2.938-.819 2.938-2.605s-1.282-2.583-2.938-2.583m.166 6.614H1.602v5.48h4.076a2.684 2.684 0 0 0 3-2.749c0-1.678-1.156-2.731-3-2.731"/><path data-name="Path 324" d="M19.686 62.12v-1.156a3.781 3.781 0 0 1-2.92 1.282 3.607 3.607 0 0 1-2.668-.967 3.854 3.854 0 0 1-1.048-2.9v-6.6h1.512v6.362c0 1.827.967 2.749 2.52 2.749a2.444 2.444 0 0 0 2.583-2.749v-6.356h1.512v10.331h-1.491Z"/><path data-name="Path 325" d="M24.261 47.146h1.7v1.7h-1.7Zm.085 4.639h1.512v10.331h-1.512V51.785Z"/><path data-name="Path 326" d="M31.631 62.12a2.46 2.46 0 0 1-2.623-2.749v-12.2h1.512v12.14c0 1.008.337 1.512 1.386 1.512h.819v1.3h-1.094Z"/><path data-name="Path 327" d="M40.851 62.12v-1.237a3.34 3.34 0 0 1-2.938 1.361 3.586 3.586 0 0 1-2.52-.9c-1.048-1.048-1.26-2.772-1.26-4.387s.211-3.339 1.26-4.391a3.606 3.606 0 0 1 2.52-.9 3.326 3.326 0 0 1 2.92 1.323v-5.825h1.512v14.952h-1.49Zm-2.605-9.111c-2.245 0-2.605 1.93-2.605 3.951s.355 3.946 2.605 3.946 2.583-1.93 2.583-3.946-.337-3.951-2.583-3.951"/><path data-name="Path 328" d="M45.409 47.146h1.7v1.7h-1.7Zm.085 4.639h1.512v10.331h-1.512V51.785Z"/><path data-name="Path 329" d="M56.811 62.12v-6.362c0-1.827-.985-2.749-2.542-2.749a2.43 2.43 0 0 0-2.565 2.749v6.362h-1.512V51.789h1.512v1.134a3.722 3.722 0 0 1 2.9-1.26 3.559 3.559 0 0 1 2.646.967 3.825 3.825 0 0 1 1.071 2.88v6.614h-1.512Z"/><path data-name="Path 330" d="M64.707 66.863a4.57 4.57 0 0 1-3.51-1.386l.985-.967a3.176 3.176 0 0 0 2.479 1.03c2 0 2.835-1.408 2.835-3.172v-1.619a3.333 3.333 0 0 1-2.9 1.345 3.555 3.555 0 0 1-2.5-.922c-1.03-1.03-1.26-2.623-1.26-4.306s.234-3.276 1.26-4.306a3.606 3.606 0 0 1 2.52-.9 3.255 3.255 0 0 1 2.9 1.345v-1.219h1.489v10.646a4.114 4.114 0 0 1-4.306 4.432m.229-13.858c-2.245 0-2.583 1.93-2.583 3.865s.337 3.865 2.583 3.865 2.56-1.93 2.56-3.865-.315-3.865-2.56-3.865"/><path data-name="Path 331" d="M80.914 62.246a6.521 6.521 0 0 1-5.125-1.975l1.089-1.089a5.141 5.141 0 0 0 4.077 1.638c2.182 0 3.528-1.03 3.528-2.772a2.4 2.4 0 0 0-.715-1.867 3.242 3.242 0 0 0-1.953-.715l-1.746-.27a5.423 5.423 0 0 1-2.749-1.134 3.535 3.535 0 0 1-1.134-2.794c0-2.542 1.827-4.221 4.787-4.221a5.986 5.986 0 0 1 4.45 1.638l-1.03 1.03a4.707 4.707 0 0 0-3.487-1.282c-1.993 0-3.15 1.111-3.15 2.772a2.16 2.16 0 0 0 .67 1.723 4.285 4.285 0 0 0 2.016.819l1.638.252a4.836 4.836 0 0 1 2.731 1.048 3.745 3.745 0 0 1 1.26 2.961c0 2.623-2.056 4.243-5.165 4.243"/><path data-name="Path 332" d="M95.154 61.067a4.319 4.319 0 0 1-5.921 0 7.357 7.357 0 0 1 0-8.234 4.319 4.319 0 0 1 5.921 0 7.357 7.357 0 0 1 0 8.234m-1.071-7.307a2.655 2.655 0 0 0-1.89-.756 2.583 2.583 0 0 0-1.867.756 6.468 6.468 0 0 0 0 6.38 2.6 2.6 0 0 0 1.867.756 2.636 2.636 0 0 0 1.89-.756 6.623 6.623 0 0 0 0-6.38"/><path data-name="Path 333" d="M103.047 62.243c-2.605 0-4.576-1.764-4.576-5.291s1.971-5.291 4.576-5.291a4.089 4.089 0 0 1 3.4 1.534l-1.03.967a3.018 3.018 0 0 0-4.765.018 6.065 6.065 0 0 0 0 5.543 2.793 2.793 0 0 0 2.394 1.174 2.829 2.829 0 0 0 2.371-1.174l1.03.985a4.089 4.089 0 0 1-3.4 1.534"/><path data-name="Path 334" d="M108.636 47.146h1.7v1.7h-1.7Zm.086 4.639h1.512v10.331h-1.512V51.785Z"/><path data-name="Path 335" d="M114.368 57.35c0 2.268 1.071 3.568 3.046 3.568a3.391 3.391 0 0 0 2.709-1.174l1.03.9a4.742 4.742 0 0 1-3.78 1.6c-2.731 0-4.513-1.638-4.513-5.291 0-3.339 1.615-5.291 4.243-5.291s4.243 1.93 4.243 5v.693h-6.97Zm5.143-2.857a2.657 2.657 0 0 0-4.832 0 4.431 4.431 0 0 0-.315 1.723h5.458a4.348 4.348 0 0 0-.315-1.723"/><path data-name="Path 336" d="M126.841 62.12a2.533 2.533 0 0 1-2.646-2.772v-6.34h-1.3v-1.156h1.3v-3.235h1.512v3.235h2.2v1.156h-2.2v6.3c0 .945.441 1.512 1.408 1.512h.8v1.3h-1.075Z"/><path data-name="Path 337" d="M132.848 64.617a3.071 3.071 0 0 1-.733 1.219 2.832 2.832 0 0 1-2.016.715h-.652v-1.345h.463c1.048 0 1.363-.337 1.7-1.282l.733-2.016-3.716-10.124h1.638l2.835 8.293 2.812-8.293h1.638l-4.7 12.828Z"/><path data-name="Path 338" d="M177.235 25.1a.35.35 0 0 1 .018-.094c.04-.2.148-.274.225-.274.049 0 .211.247.315.418a11.543 11.543 0 0 0-.558-.045m10.722-5.035a2.133 2.133 0 0 1-.675-1.134 2.127 2.127 0 0 0-.378-.913c-.108-.157-.05-.211 0-.346a6.726 6.726 0 0 1 .625.4 2.962 2.962 0 0 1 .666.5 2.7 2.7 0 0 1 .445.846 4.13 4.13 0 0 0 .265.625c0 .09-.076.229-.157.238h-.045a1.255 1.255 0 0 1-.742-.216m-8.581 5.314c-.369-.072-.738-.13-1.107-.18a4.814 4.814 0 0 0-.517-1.147.82.82 0 0 1-.243-.6c0-.148.4-.756.657-1.309s1.561-3.577 1.66-3.933.2-.454.351-.855c.076-.207.423-.828.738-1.381a6.629 6.629 0 0 0 .337.841 2.1 2.1 0 0 1 0 2.151 9.947 9.947 0 0 0-.3 2.358 15.88 15.88 0 0 0 .229 3.1 2.218 2.218 0 0 0 .8 1.44c-.949-.171-1.908-.342-2.6-.477M185.874 0a3.767 3.767 0 0 0-.423.045.993.993 0 0 0-.112.022 7 7 0 0 0-2.628 1.17 9.855 9.855 0 0 0-2.846 2.435 6.349 6.349 0 0 0-.963 2.421 3.288 3.288 0 0 1-.517 1.818 3.672 3.672 0 0 0-.639 1.93 5.327 5.327 0 0 0 1.111 2.115 1.356 1.356 0 0 1 .1 1.615 3.5 3.5 0 0 1-.787 1.089 1.533 1.533 0 0 0 .9.045 23.435 23.435 0 0 0-1.017 2.974 17.149 17.149 0 0 0-2.016 5.575 3.851 3.851 0 0 0-.6.958 8.583 8.583 0 0 1-.378.913c-.454.04-.9.1-1.354.189l-.04.009a11.76 11.76 0 0 0-2.871.954c-.072.036-.265.108-.265.108a4.582 4.582 0 0 1-2.83.072c-.2-.04-.594-.09-.594-.09h-.049a7.724 7.724 0 0 0-3.613.549 8.077 8.077 0 0 0-3.708 2.709s-.306.427-.441.652a9.8 9.8 0 0 0-.787 1.6 12.6 12.6 0 0 0-.558 1.926 16.456 16.456 0 0 0 .013 6.92c.108.495.238.994.391 1.489a3.161 3.161 0 0 1 .126 1.08 2.146 2.146 0 0 1-.814 1.388 5.379 5.379 0 0 1-1.152.409 2.568 2.568 0 0 0 3.451.018 4.677 4.677 0 0 0 .495-.544 14.012 14.012 0 0 0 .792-1.332l.126-.252a12.405 12.405 0 0 0 1.269-5.476c0-.643.068-1.971.068-1.971a16.278 16.278 0 0 1 .747-4.14c.013-.045.045-.139.045-.139l.018-.054a6.657 6.657 0 0 1 .949-1.98 2.877 2.877 0 0 1 3.438-.913c-.445.585-.913 1.143-1.318 1.746a12.347 12.347 0 0 0-.913 1.624 9.734 9.734 0 0 0-.877 3.442 27.268 27.268 0 0 0 .09 3.267 8 8 0 0 1-.04 1.314v.063a11.11 11.11 0 0 1-.634 2.6s-.126.342-.193.508a12.384 12.384 0 0 1-1.323 2.452s0 .009-.009.018c-.167.243-.6.8-.6.8-.2.247-.4.486-.621.72a.9.9 0 0 0-.252.607c.265 2.272-.576 4.315-1.237 6.394-.068.216-.135.427-.2.643-.279.954-.882 2.853-.882 2.853l-.013.04c-.059.175-.1.306-.158.481a1.627 1.627 0 0 0 .459 1.957c.5.427.445.994.432 1.557v.733h3.267a10.016 10.016 0 0 0-.85-1.575 3.723 3.723 0 0 1-.738-3.505c.18-.7.378-1.4.6-2.088a18.812 18.812 0 0 1 2.245-4.868c.13-.193.436-.6.436-.6a10.851 10.851 0 0 1 2.947-2.709c.252-.157.8-.508.8-.508a15.591 15.591 0 0 0 2.443-1.854s.328-.319.486-.495c.481-.535.913-1.12 1.39-1.71a4.845 4.845 0 0 1 2.466 3.325l.095.891c0 .1-.009.436-.009.436a7.136 7.136 0 0 1-.086.76s-.22 1.116-.346 1.665c-.234 1.039-.2 1.2.648 1.84.369.279.729.571 1.08.868l.036.031a21.622 21.622 0 0 1 4.144 4.652 11.96 11.96 0 0 1 1.084 2.223l.067.162a1.711 1.711 0 0 0 1.084 1.035.673.673 0 0 1 .355.423c.148.522.243 1.062.364 1.62h3.487c-.562-.954-1.039-1.9-1.638-2.754q-.837-1.181-1.678-2.358c-1.413-1.971-2.835-3.933-4.252-5.9a1.6 1.6 0 0 1-.292-1.458 2.066 2.066 0 0 1 .108-.274c.139-.274.409-.9.409-.9a24.856 24.856 0 0 0 1.2-4.045s.319-1.35.495-2.016l.162-.6c1.7.288 3.348.5 5.048.643 0 0 1.417.1 2.1.13.3.013.594.022.891.031a47.488 47.488 0 0 0 5.651-.2s.432-.036.648-.063c.022.09.054.139.045.184-.059.27-.2.94-.2.94l-.949 4.4s-.175.747-.27 1.1c-.4 1.557-.873 3.1-1.354 4.63l-.612 1.944a12.224 12.224 0 0 1-.814 1.66 1.335 1.335 0 0 0 .225 1.84 3.914 3.914 0 0 1 1.4 3.087h3.483a11.158 11.158 0 0 0-.517-1.012c-.5-.769-.85-1.345-1.4-2.079l-.1-.135-.054-.067a2.023 2.023 0 0 1-.247-2.173c.513-1.143 1.579-3.478 1.579-3.478a50.371 50.371 0 0 1 1.854-3.613c.059-.1.252-.441.252-.441.283-.481.819-1.318.936-1.494.193-.292.387-.585.594-.873a34.113 34.113 0 0 0 2.016-3.6 1.754 1.754 0 0 1 2.169-.724 12.684 12.684 0 0 0 1.543.639 15.4 15.4 0 0 0 2.29.585s1.368.207 2.07.27a23.928 23.928 0 0 1 3.163.571.827.827 0 0 1 .621 1.066c-.148.787-.3 1.57-.454 2.358l-.337 1.773-.22 1.161a.825.825 0 0 1-.648.738 2.316 2.316 0 0 0-1.354.981c-.036.054-.072.1-.1.157a.708.708 0 0 1-.486.27c-.4.04-.81.014-1.26.014v3.316a15.206 15.206 0 0 0 2.254-.675 6.438 6.438 0 0 0 2.7-2.281 12.973 12.973 0 0 0 .81-1.669c.315-.94.634-1.881.94-2.821l.328-1.03c.328-1.053.639-2.11.909-3.181.09-.364.18-.733.256-1.1a1.4 1.4 0 0 0-.7-1.588 25.672 25.672 0 0 0-2.664-1.368 22.292 22.292 0 0 0-3.487-1.233 22.537 22.537 0 0 0-2.232-.463 2.009 2.009 0 0 1-.2-.058c.095-.292.2-.576.3-.864.18-.513.355-1.021.5-1.539.04-.148.09-.3.126-.45.04-.175.131-.607.131-.607a19.965 19.965 0 0 0 .369-2.569 11.328 11.328 0 0 1 .94-3.285c.009-.027.063-.162.063-.162a18.117 18.117 0 0 1 1.323-2.7l.059-.1a26.645 26.645 0 0 1 1.5-2.286.335.335 0 0 1 .054.031c.445.247.877.477 1.291.733a.684.684 0 0 1 .27.355c.085.292.175.58.261.873.18.6.526 1.993.526 1.993a2.572 2.572 0 0 1 .077.7c-.018.324-.067.657-.077.981a2.68 2.68 0 0 0 .081.783.81.81 0 0 0 .162.337l.036.045a.392.392 0 0 0 .135.112 11.58 11.58 0 0 0 1.62.648l.108.031c.09.027.176.054.266.076a2.126 2.126 0 0 0 1.008-.031L218.5 32l.365.013a2.193 2.193 0 0 0 1.62-1.89c.1-.85.18-1.476.3-2.326l.031-.225c.27-1.98.567-3.96.85-5.939.153-1.08.292-2.169.472-3.244a.9.9 0 0 1 .369-.558c.787-.495 1.6-.945 2.4-1.521-.81-.09-1.62-.22-2.43-.261h-.054c-.436-.018-.873 0-1.309.009a16.96 16.96 0 0 1-1.444 0 13.188 13.188 0 0 1-1.854-.351l-.315-.054a12.835 12.835 0 0 0-4.954-.013l-.081.018a12.8 12.8 0 0 0-4.319 1.759s-1.039.706-1.543 1.116l-.4.346-.1.081c-1.08.94-3.321 2.808-3.321 2.808-.882.733-1.728 1.431-2.61 2.164a2.546 2.546 0 0 1-.792.423 8.426 8.426 0 0 1-.823.288l.189-.549c.22-.648.216-1.462-1.1-1.989-.256-.1-1.273-.436-1.633-.535s-1.008-.27-1.521-.378-.7-.189-1.093-.274a6.466 6.466 0 0 0-1.336-.144c-.805 0-.963-.337-1.044-.418s-.018-.171 0-.409-.27-.378-.517-.666a6.285 6.285 0 0 0-.675-.742 8.106 8.106 0 0 1-.715-.846c-.22-.256-.787-.9-1.012-1.224s-.72-1.044-.985-1.4-.4-.459-.459-.589a.6.6 0 0 1 .059-.661 1.883 1.883 0 0 0 .3-1.44 3.267 3.267 0 0 0-.6-1.219c-.387-.544-.711-1.2-.778-1.3a2.411 2.411 0 0 1-.207-.972c-.018-.261-.04-.589-.076-.837s-.162-.409-.171-.567.171-.166.279-.049a.959.959 0 0 0 .553.211.625.625 0 0 0 .495-.229c.139-.162.238-.508.342-.648s.508-.265.7-.414a.95.95 0 0 0 .306-.544c.063-.211.216-.454.279-.679s.22-.211.31-.306.049-.27.063-.441a.9.9 0 0 1 .135-.445 3.149 3.149 0 0 0 .252-1.152 2.5 2.5 0 0 0-.126-.621 8.218 8.218 0 0 0-.864-1.075 7.583 7.583 0 0 0-.639-.639A2.2 2.2 0 0 0 185.978 0h-.094Z"/></g></svg>