<?xml version="1.0" standalone="no"?>
<!DOCTYPE svg PUBLIC "-//W3C//DTD SVG 20010904//EN"
 "http://www.w3.org/TR/2001/REC-SVG-20010904/DTD/svg10.dtd">
<svg version="1.0" xmlns="http://www.w3.org/2000/svg"
 width="260.000000pt" height="260.000000pt" viewBox="0 0 260.000000 260.000000"
 preserveAspectRatio="xMidYMid meet">
<metadata>
Created by potrace 1.14, written by Peter Selinger 2001-2017
</metadata>
<g transform="translate(0.000000,260.000000) scale(0.100000,-0.100000)"
fill="#000000" stroke="none">
<path d="M1070 2268 c-24 -12 -66 -43 -91 -68 -37 -35 -49 -56 -57 -95 -6 -28
-18 -64 -26 -80 -21 -40 -20 -49 10 -100 24 -41 24 -45 10 -74 -11 -20 -12
-31 -5 -33 7 -2 -4 -42 -30 -106 -22 -56 -41 -109 -41 -118 0 -8 -9 -35 -20
-59 -15 -33 -28 -46 -48 -51 -15 -3 -49 -13 -77 -22 -33 -11 -84 -17 -150 -17
-118 0 -158 -16 -222 -89 -73 -82 -96 -220 -63 -378 15 -73 5 -118 -25 -118
-9 0 -13 -4 -10 -10 3 -5 22 -10 41 -10 74 0 117 88 138 280 18 159 28 199 62
240 21 24 34 30 64 30 l39 0 -35 -51 c-49 -73 -64 -136 -62 -254 2 -115 -15
-170 -76 -254 -27 -37 -36 -58 -36 -89 0 -22 -18 -99 -40 -171 -44 -145 -46
-159 -25 -187 8 -10 15 -31 15 -46 0 -27 2 -28 50 -28 l50 0 -32 61 -32 60 23
77 c47 158 98 233 212 309 38 24 85 63 104 86 41 47 53 45 93 -14 22 -32 24
-40 18 -124 l-7 -90 45 -35 c58 -45 136 -140 169 -206 14 -28 33 -54 41 -57 8
-3 17 -19 21 -36 6 -29 9 -31 56 -31 27 0 49 4 49 9 0 12 -82 135 -168 255
-74 101 -80 117 -61 160 7 14 24 69 38 123 23 83 30 98 46 96 11 -1 72 -7 135
-13 66 -7 155 -9 209 -5 l94 7 -7 -45 c-17 -113 -71 -298 -127 -434 -12 -30
-11 -34 14 -61 15 -15 30 -42 33 -60 6 -31 8 -32 61 -32 l55 0 -17 27 c-10 16
-29 44 -42 63 -12 19 -23 44 -23 55 0 28 79 197 130 280 24 39 59 98 77 132
41 76 59 82 145 54 35 -11 86 -23 113 -26 28 -3 71 -11 98 -17 42 -9 47 -13
47 -36 0 -46 -30 -187 -41 -190 -5 -2 -23 -15 -38 -28 -16 -13 -38 -24 -50
-24 -19 0 -21 -6 -21 -50 0 -55 4 -57 58 -34 84 35 115 86 172 292 22 78 27
109 19 123 -17 32 -147 88 -261 113 l-27 6 14 41 c8 22 21 81 29 130 15 94 75
237 114 272 42 38 82 -18 90 -126 5 -66 5 -68 40 -82 45 -19 65 -19 91 2 19
16 26 46 52 217 16 110 35 206 41 213 6 8 25 21 42 30 28 15 29 17 11 24 -11
4 -47 8 -79 8 -33 1 -97 6 -143 13 -142 21 -242 -13 -374 -125 -124 -106 -189
-157 -199 -157 -6 0 -10 11 -10 23 0 13 -8 31 -17 40 -18 16 -164 57 -202 57
-12 0 -25 8 -28 18 -4 9 -28 42 -53 72 -82 96 -92 115 -79 144 10 21 8 31 -13
68 -14 24 -28 60 -32 81 -6 31 -4 37 11 37 28 0 65 46 84 103 19 55 16 65 -25
110 -31 33 -65 35 -126 5z m-74 -522 c3 -14 1 -48 -5 -76 -12 -53 -5 -151 12
-184 9 -18 6 -18 -29 -13 -22 4 -47 7 -56 7 -10 0 -24 13 -33 30 -15 28 -14
33 13 87 16 32 39 84 51 116 25 62 37 70 47 33z m214 -48 c24 -26 26 -51 4
-46 -17 3 -49 68 -34 68 5 0 18 -10 30 -22z"/>
</g>
</svg>
