<svg data-name="Group 554" xmlns="http://www.w3.org/2000/svg" width="281.8" height="99.115" viewBox="0 0 281.8 99.115"><defs><clipPath id="a"><path data-name="Rectangle 155" fill="none" d="M0 0h281.8v99.114H0z"/></clipPath><clipPath id="b"><path data-name="Rectangle 154" fill="none" d="M0 0h270.762v80.478H0z"/></clipPath><clipPath id="c"><path data-name="Rectangle 153" fill="none" d="M0 0h104.394v99.114H0z"/></clipPath><clipPath id="d"><path data-name="Path 384" d="M421.509 60.9Zm-48.59-8.265c0-.036.012-.077.021-.115.05-.244.181-.332.27-.332.057 0 .253.3.38.5a21.602 21.602 0 0 0-.67-.056m12.9-6.059a2.569 2.569 0 0 1-.811-1.364 2.539 2.539 0 0 0-.457-1.1c-.128-.188-.057-.257 0-.415a7.781 7.781 0 0 1 .752.474 3.591 3.591 0 0 1 .8.6 3.224 3.224 0 0 1 .534 1.018 4.914 4.914 0 0 0 .317.752c.008.109-.089.277-.189.287h-.055a1.5 1.5 0 0 1-.893-.258m-10.325 6.4a21.5 21.5 0 0 0-1.334-.215 5.689 5.689 0 0 0-.624-1.38.985.985 0 0 1-.3-.728c0-.183.487-.91.791-1.578s1.879-4.306 2-4.731.244-.547.425-1.031c.093-.25.506-1 .888-1.661a8.819 8.819 0 0 0 .4 1.012 2.522 2.522 0 0 1 0 2.591 11.914 11.914 0 0 0-.363 2.837 19.179 19.179 0 0 0 .277 3.728 2.662 2.662 0 0 0 .964 1.733 188.99 188.99 0 0 1-3.132-.576m7.824-30.548a4.187 4.187 0 0 0-.507.056 1.377 1.377 0 0 0-.136.027 8.388 8.388 0 0 0-3.16 1.406 11.775 11.775 0 0 0-3.42 2.931 7.7 7.7 0 0 0-1.159 2.914 3.9 3.9 0 0 1-.625 2.187 4.4 4.4 0 0 0-.767 2.322 6.44 6.44 0 0 0 1.336 2.548 1.632 1.632 0 0 1 .129 1.946 4.243 4.243 0 0 1-.949 1.312 1.861 1.861 0 0 0 1.083.053 28.72 28.72 0 0 0-1.225 3.577 20.638 20.638 0 0 0-2.428 6.708 4.694 4.694 0 0 0-.727 1.153 11.247 11.247 0 0 1-.453 1.1 16.109 16.109 0 0 0-1.629.229l-.046.011a14.211 14.211 0 0 0-3.455 1.148 7.604 7.604 0 0 1-.319.132 5.492 5.492 0 0 1-3.407.086 13.117 13.117 0 0 0-.715-.106l-.06-.006a9.317 9.317 0 0 0-4.346.669 9.771 9.771 0 0 0-4.464 3.261s-.366.516-.532.787a11.562 11.562 0 0 0-.947 1.929 15.264 15.264 0 0 0-.674 2.314 19.764 19.764 0 0 0 .017 8.329c.13.6.286 1.2.472 1.791a3.805 3.805 0 0 1 .152 1.3 2.592 2.592 0 0 1-.973 1.666 6.364 6.364 0 0 1-1.385.492 3.093 3.093 0 0 0 4.154.018 6.063 6.063 0 0 0 .6-.656 16.127 16.127 0 0 0 .956-1.605l.154-.3a14.849 14.849 0 0 0 1.524-6.591c0-.773.08-2.37.08-2.37a19.6 19.6 0 0 1 .9-4.983c.017-.055.056-.167.056-.168l.022-.066a8.01 8.01 0 0 1 1.142-2.383 3.466 3.466 0 0 1 4.136-1.1c-.534.7-1.1 1.378-1.587 2.1a14.3 14.3 0 0 0-1.1 1.956 11.654 11.654 0 0 0-1.055 4.138 33.935 33.935 0 0 0 .108 3.929 9.777 9.777 0 0 1-.047 1.579l-.008.077a12.95 12.95 0 0 1-.756 3.125s-.149.41-.23.612a14.9 14.9 0 0 1-1.593 2.952.125.125 0 0 1-.012.019c-.2.292-.723.962-.723.962-.238.3-.486.585-.748.866a1.076 1.076 0 0 0-.3.729c.317 2.736-.693 5.195-1.488 7.7a26.4 26.4 0 0 0-.237.772c-.336 1.149-1.06 3.432-1.06 3.432l-.017.051c-.069.212-.117.37-.188.581a1.962 1.962 0 0 0 .552 2.357c.606.515.533 1.2.521 1.876-.006.276 0 .552 0 .882h3.933a11.916 11.916 0 0 0-1.025-1.893 4.477 4.477 0 0 1-.887-4.218q.327-1.27.72-2.511a22.732 22.732 0 0 1 2.7-5.859c.158-.232.523-.725.523-.725a12.967 12.967 0 0 1 3.548-3.258c.3-.187.965-.609.965-.609a18.688 18.688 0 0 0 2.939-2.229s.4-.386.584-.6c.582-.643 1.1-1.346 1.672-2.058a5.815 5.815 0 0 1 2.966 4l.112 1.074c0 .127-.012.527-.012.527a9.662 9.662 0 0 1-.1.917s-.268 1.342-.415 2c-.279 1.25-.243 1.447.78 2.217.446.335.877.688 1.3 1.046l.043.035a26.074 26.074 0 0 1 4.985 5.6 14.163 14.163 0 0 1 1.3 2.672 6.5 6.5 0 0 0 .082.2 2.084 2.084 0 0 0 1.3 1.247.821.821 0 0 1 .428.506c.177.63.29 1.278.436 1.95h4.2c-.679-1.15-1.249-2.285-1.973-3.314q-1-1.421-2.018-2.838c-1.7-2.371-3.414-4.734-5.117-7.1a1.943 1.943 0 0 1-.353-1.758 2.908 2.908 0 0 1 .13-.33c.168-.33.492-1.079.492-1.079a30.159 30.159 0 0 0 1.448-4.87s.383-1.622.6-2.425c.058-.223.119-.444.192-.72 2.043.348 4.031.606 6.076.773 0 0 1.706.125 2.53.159.358.016.715.028 1.074.037a57.207 57.207 0 0 0 6.8-.246s.519-.045.781-.074c.027.109.064.17.054.221l-.24 1.132-1.143 5.294s-.212.9-.324 1.329c-.486 1.872-1.052 3.726-1.631 5.575 0 0-.491 1.56-.738 2.337a14.525 14.525 0 0 1-.983 2 1.606 1.606 0 0 0 .271 2.216 4.719 4.719 0 0 1 1.687 3.715h4.191c-.223-.44-.386-.851-.622-1.217-.6-.923-1.025-1.618-1.688-2.5l-.12-.165-.064-.083a2.444 2.444 0 0 1-.3-2.618c.617-1.375 1.9-4.184 1.9-4.184a60.162 60.162 0 0 1 2.528-4.879c.34-.581.988-1.586 1.126-1.8.234-.353.468-.705.715-1.052a41.025 41.025 0 0 0 2.424-4.324 2.107 2.107 0 0 1 2.609-.872 15.237 15.237 0 0 0 1.863.776 18.7 18.7 0 0 0 2.756.705s1.647.252 2.488.322a28.388 28.388 0 0 1 3.808.688.993.993 0 0 1 .747 1.284c-.179.946-.364 1.892-.548 2.84-.138.71-.272 1.422-.407 2.132s-.181.933-.268 1.4a1 1 0 0 1-.777.89 2.8 2.8 0 0 0-1.632 1.181c-.041.063-.084.123-.125.189a.854.854 0 0 1-.584.326c-.484.048-.975.016-1.517.016v3.992a18.313 18.313 0 0 0 2.713-.813 7.753 7.753 0 0 0 3.242-2.746 16.4 16.4 0 0 0 .975-2.007c.378-1.131.761-2.262 1.132-3.4 0 0 .268-.827.4-1.241a66.9 66.9 0 0 0 1.095-3.831c.109-.441.215-.883.311-1.329a1.694 1.694 0 0 0-.843-1.909 31.363 31.363 0 0 0-3.209-1.646 27.34 27.34 0 0 0-4.2-1.486 26.134 26.134 0 0 0-2.685-.557 2.019 2.019 0 0 1-.242-.07c.115-.35.236-.7.359-1.041.218-.616.427-1.231.6-1.853.051-.18.106-.36.149-.541.048-.213.157-.729.157-.729a23.667 23.667 0 0 0 .447-3.096 13.668 13.668 0 0 1 1.132-3.954 9.05 9.05 0 0 1 .077-.194 22.077 22.077 0 0 1 1.59-3.253l.073-.126a31.063 31.063 0 0 1 1.807-2.748c.022.014.044.024.067.038a.007.007 0 0 1 .006 0c.536.3 1.055.574 1.556.88a.839.839 0 0 1 .327.428c.1.351.21.7.316 1.051.218.723.632 2.4.632 2.4a3.183 3.183 0 0 1 .094.837c-.024.389-.083.79-.089 1.18a3.137 3.137 0 0 0 .1.942.97.97 0 0 0 .2.406l.042.054a.446.446 0 0 0 .161.135 14.233 14.233 0 0 0 1.951.781l.13.038c.106.03.21.066.317.09a2.535 2.535 0 0 0 1.211-.037l-.44-.014.44.014a2.639 2.639 0 0 0 1.949-2.275c.119-1.021.218-1.776.356-2.8l.037-.271c.324-2.384.685-4.764 1.022-7.146.182-1.3.349-2.609.566-3.905a1.093 1.093 0 0 1 .445-.672c.95-.593 1.931-1.136 2.89-1.831-.976-.107-1.948-.264-2.926-.312h-.063c-.524-.021-1.051 0-1.576.011-.582.016-1.161.032-1.738 0a15.8 15.8 0 0 1-2.233-.422c-.128-.024-.25-.043-.379-.067a15.4 15.4 0 0 0-5.959-.016l-.1.02a15.4 15.4 0 0 0-5.2 2.115s-1.253.849-1.859 1.342l-.489.415c-.059.05-.061.048-.12.1-1.3 1.132-4 3.376-4 3.376-1.061.882-2.079 1.72-3.141 2.606a3.165 3.165 0 0 1-.956.511 10.167 10.167 0 0 1-.992.347c.075-.221.151-.446.226-.662.266-.78.26-1.759-1.322-2.392-.308-.123-1.533-.524-1.967-.644s-1.215-.324-1.829-.454-.844-.229-1.316-.329a7.749 7.749 0 0 0-1.61-.175c-.97 0-1.157-.406-1.255-.5s-.021-.208 0-.495-.325-.454-.622-.8a7.474 7.474 0 0 0-.81-.891 9.9 9.9 0 0 1-.861-1.018c-.266-.306-.949-1.078-1.217-1.473s-.869-1.255-1.185-1.69-.476-.553-.555-.712a.713.713 0 0 1 .071-.8 2.279 2.279 0 0 0 .361-1.731 3.9 3.9 0 0 0-.728-1.469c-.465-.656-.853-1.438-.94-1.562a2.855 2.855 0 0 1-.247-1.167c-.021-.316-.05-.712-.09-1.009s-.2-.494-.207-.681.207-.2.336-.059a1.169 1.169 0 0 0 .663.256.738.738 0 0 0 .594-.277c.166-.2.285-.611.414-.778s.612-.319.841-.5a1.112 1.112 0 0 0 .367-.653c.075-.253.259-.548.334-.816s.266-.255.372-.37.06-.327.075-.532a1.082 1.082 0 0 1 .162-.536 3.844 3.844 0 0 0 .3-1.384 3.066 3.066 0 0 0-.151-.749 9.561 9.561 0 0 0-1.042-1.3 9.476 9.476 0 0 0-.771-.77 2.605 2.605 0 0 0-1.542-.534h-.036Z" transform="translate(-347.992 -22.424)" fill="none"/></clipPath><linearGradient id="e" x1="-1.981" y1="1.074" x2="-1.975" y2="1.074" gradientUnits="objectBoundingBox"><stop offset="0" stop-color="#64c4e0"/><stop offset=".211" stop-color="#64c4e0"/><stop offset=".387" stop-color="#56a6ce"/><stop offset=".804" stop-color="#3764a8"/><stop offset="1" stop-color="#2c4b99"/></linearGradient></defs><g data-name="Group 553" clip-path="url(#a)"><g data-name="Group 552"><g data-name="Group 551" clip-path="url(#b)" transform="translate(0 12.137)"><path data-name="Path 339" d="M9.166 49.244a9.106 9.106 0 0 1-6.667-2.708c-2.5-2.5-2.43-5.591-2.43-9.86S0 29.315 2.499 26.815a9.109 9.109 0 0 1 6.667-2.71c4.618 0 8.228 2.639 9.1 7.813h-4.9c-.486-1.978-1.734-3.506-4.165-3.506a3.991 3.991 0 0 0-3.091 1.284c-.936 1.042-1.214 2.222-1.214 6.982s.278 5.937 1.214 6.978a3.988 3.988 0 0 0 3.091 1.282c2.431 0 3.68-1.528 4.165-3.506h4.9c-.869 5.173-4.513 7.811-9.1 7.811"/><path data-name="Path 340" d="M36.386 46.536a8.938 8.938 0 0 1-6.666 2.708 9.02 9.02 0 0 1-6.7-2.708c-2.5-2.5-2.43-5.59-2.43-9.861s-.069-7.361 2.43-9.861a9.02 9.02 0 0 1 6.7-2.708 8.938 8.938 0 0 1 6.666 2.708c2.5 2.5 2.464 5.59 2.464 9.861s.035 7.361-2.464 9.861m-3.576-16.8a4.014 4.014 0 0 0-3.09-1.32 4.092 4.092 0 0 0-3.125 1.32c-.937 1.042-1.181 2.187-1.181 6.944s.244 5.9 1.181 6.944a4.092 4.092 0 0 0 3.125 1.32 4.014 4.014 0 0 0 3.09-1.32c.937-1.04 1.215-2.187 1.215-6.944s-.278-5.9-1.215-6.944"/><path data-name="Path 341" d="M51.767 49.036h-3.611l-8.159-24.722h5l4.965 16.112 4.965-16.112h5.034Z"/><path data-name="Path 342" d="M61.904 49.036V24.314h16.285v4.307H66.73v5.8h9.759v4.3h-9.756v6.008h11.456v4.305Z"/><path data-name="Path 343" d="m96.864 49.036-9.791-15.172v15.172h-4.826V24.314h4.3l9.792 15.139V24.314h4.826v24.722Z"/><path data-name="Path 344" d="M115.72 28.62v20.415h-4.826V28.62h-6.458v-4.305h17.745v4.305Z"/><path data-name="Path 345" d="m139.225 49.035-4.826-9.86h-3.473v9.86H126.1v-24.72h9.687c5.035 0 8.02 3.438 8.02 7.569a6.656 6.656 0 0 1-4.514 6.492l5.52 10.659Zm-3.75-20.415h-4.549v6.527h4.549a3.272 3.272 0 1 0 0-6.527"/><path data-name="Path 346" d="M158.251 38.901v10.134h-4.791V38.901l-7.431-14.582h5.243l4.618 9.965 4.548-9.965h5.243Z"/><path data-name="Rectangle 150" d="M176.452 24.325h1.167v50.431h-1.167z"/><path data-name="Rectangle 151" fill="none" stroke="#000" stroke-width=".041" d="M176.45 24.324h1.168v50.431h-1.168z"/><path data-name="Path 347" d="M7.077 74.767h-7V56.773h6.772c3.134 0 5.309 1.794 5.309 4.8a4.126 4.126 0 0 1-2.654 3.948 4.354 4.354 0 0 1 2.931 4.271c0 3.26-2.174 4.978-5.358 4.978m-.379-16.275h-4.7v6.242h4.7c2 0 3.538-.986 3.538-3.134s-1.542-3.107-3.538-3.107m.2 7.96h-4.9v6.6h4.9c2.224 0 3.614-1.289 3.614-3.311s-1.39-3.285-3.614-3.285"/><path data-name="Path 348" d="M23.757 74.767v-1.39a4.556 4.556 0 0 1-3.51 1.537 4.421 4.421 0 0 1-3.21-1.164 4.632 4.632 0 0 1-1.263-3.487v-7.937h1.82v7.659c0 2.2 1.162 3.311 3.032 3.311s3.109-1.138 3.109-3.311v-7.659h1.812v12.436Z"/><path data-name="Path 349" d="M29.267 56.747h2.047v2.048h-2.047Zm.1 5.584h1.82v12.436h-1.82Z"/><path data-name="Path 350" d="M38.138 74.767c-2.174 0-3.159-1.416-3.159-3.311V56.773h1.818v14.608c0 1.212.406 1.82 1.669 1.82h.986v1.567Z"/><path data-name="Path 351" d="M49.233 74.766v-1.491a4.028 4.028 0 0 1-3.538 1.644 4.333 4.333 0 0 1-3.034-1.087c-1.263-1.263-1.517-3.336-1.517-5.281s.253-4.02 1.517-5.283a4.333 4.333 0 0 1 3.034-1.087 4 4 0 0 1 3.513 1.592v-7h1.82v17.994Zm-3.134-10.969c-2.7 0-3.134 2.325-3.134 4.752s.429 4.75 3.134 4.75 3.109-2.325 3.109-4.75-.4-4.752-3.109-4.752"/><path data-name="Path 352" d="M54.717 56.747h2.048v2.048h-2.048Zm.1 5.584h1.82v12.436h-1.82Z"/><path data-name="Path 353" d="M68.439 74.767v-7.658c0-2.2-1.188-3.311-3.057-3.311s-3.085 1.137-3.085 3.311v7.658h-1.818V62.332h1.817v1.366a4.485 4.485 0 0 1 3.489-1.517 4.357 4.357 0 0 1 3.184 1.163 4.593 4.593 0 0 1 1.289 3.463v7.96Z"/><path data-name="Path 354" d="M77.942 80.479a5.493 5.493 0 0 1-4.222-1.669l1.188-1.163a3.83 3.83 0 0 0 2.982 1.24c2.4 0 3.412-1.693 3.412-3.818v-1.945a4 4 0 0 1-3.487 1.618 4.278 4.278 0 0 1-3.008-1.113c-1.237-1.237-1.516-3.158-1.516-5.182s.279-3.942 1.516-5.18a4.33 4.33 0 0 1 3.034-1.087 3.917 3.917 0 0 1 3.487 1.618v-1.466h1.794v12.81c0 3.083-1.921 5.333-5.18 5.333m.277-16.681c-2.7 0-3.109 2.325-3.109 4.65s.4 4.651 3.109 4.651 3.083-2.325 3.083-4.651-.378-4.65-3.083-4.65"/><path data-name="Path 355" d="M97.452 74.919a7.843 7.843 0 0 1-6.166-2.376l1.313-1.313a6.181 6.181 0 0 0 4.9 1.971c2.627 0 4.246-1.238 4.246-3.336a2.9 2.9 0 0 0-.859-2.249 3.891 3.891 0 0 0-2.351-.859l-2.1-.327a6.531 6.531 0 0 1-3.309-1.366 4.249 4.249 0 0 1-1.366-3.36c0-3.06 2.2-5.081 5.762-5.081a7.222 7.222 0 0 1 5.358 1.972l-1.238 1.237a5.676 5.676 0 0 0-4.2-1.541c-2.4 0-3.79 1.339-3.79 3.335a2.6 2.6 0 0 0 .808 2.073 5.18 5.18 0 0 0 2.426.986l1.972.3a5.8 5.8 0 0 1 3.285 1.263 4.506 4.506 0 0 1 1.517 3.564c0 3.159-2.477 5.1-6.218 5.1"/><path data-name="Path 356" d="M114.587 73.504a5.2 5.2 0 0 1-7.126 0c-1.265-1.289-1.517-3.034-1.517-4.954s.252-3.665 1.517-4.954a5.2 5.2 0 0 1 7.126 0c1.263 1.289 1.517 3.034 1.517 4.954s-.253 3.665-1.517 4.954m-1.289-8.8a3.183 3.183 0 0 0-2.275-.909 3.127 3.127 0 0 0-2.249.909c-.909.909-1.01 2.451-1.01 3.842s.1 2.932 1.01 3.842a3.127 3.127 0 0 0 2.249.909 3.183 3.183 0 0 0 2.275-.909c.909-.909.986-2.451.986-3.842s-.077-2.932-.986-3.842"/><path data-name="Path 357" d="M124.09 74.918c-3.135 0-5.509-2.123-5.509-6.368s2.374-6.37 5.509-6.37a4.925 4.925 0 0 1 4.1 1.846l-1.24 1.162a3.415 3.415 0 0 0-2.855-1.39 3.37 3.37 0 0 0-2.882 1.416 7.293 7.293 0 0 0 0 6.671 3.368 3.368 0 0 0 2.882 1.416 3.437 3.437 0 0 0 2.855-1.416l1.24 1.188a4.925 4.925 0 0 1-4.1 1.846"/><path data-name="Path 358" d="M130.811 56.747h2.048v2.048h-2.048Zm.1 5.584h1.82v12.436h-1.82Z"/><path data-name="Path 359" d="M137.711 69.03c0 2.729 1.289 4.3 3.666 4.3a4.082 4.082 0 0 0 3.259-1.416l1.24 1.087a5.7 5.7 0 0 1-4.55 1.921c-3.285 0-5.434-1.972-5.434-6.37 0-4.018 1.946-6.368 5.1-6.368 3.21 0 5.1 2.325 5.1 6.015v.834Zm6.192-3.438a3.195 3.195 0 0 0-5.814 0 5.264 5.264 0 0 0-.379 2.073h6.571a5.236 5.236 0 0 0-.379-2.073"/><path data-name="Path 360" d="M152.721 74.767a3.049 3.049 0 0 1-3.184-3.336v-7.632h-1.566v-1.39h1.568v-3.893h1.819v3.893h2.654v1.39h-2.654v7.582c0 1.137.531 1.82 1.694 1.82h.96v1.567Z"/><path data-name="Path 361" d="M159.951 77.775a3.635 3.635 0 0 1-.885 1.465 3.414 3.414 0 0 1-2.426.859h-.784v-1.618h.557c1.263 0 1.643-.4 2.047-1.541l.885-2.425-4.474-12.182h1.971l3.412 9.982 3.386-9.982h1.972Z"/><path data-name="Path 362" d="M201.276 33.87V31.76h-.016v2.108h.016" fill="#1e427b"/><path data-name="Path 363" d="m232.072 31.876-.018-6.827v1.608Z" fill="#1e427b"/><path data-name="Path 364" d="M221.312 70.63h1.321v-.008Z" fill="#1e427b"/><path data-name="Path 365" d="m201.26 35.161-.007 10.63.021-10.65-.015.02" fill="#1e427b"/><path data-name="Path 366" d="M191.615 72.007c.6.514.534 1.2.521 1.876-.007.276 0 .552 0 .882h3.933a11.843 11.843 0 0 0-1.026-1.893 4.659 4.659 0 0 1-1-2.105l-3.12.037a1.865 1.865 0 0 0 .7 1.2" fill="#3c7abd"/><path data-name="Path 367" d="M218.659 70.637c.035.088.072.177.106.265l.083.194a2.081 2.081 0 0 0 1.3 1.249.815.815 0 0 1 .43.505c.177.63.29 1.278.434 1.951h4.2c-.68-1.151-1.25-2.286-1.973-3.314-.2-.285-.4-.568-.606-.853h-1.321Z" fill="#469ed7"/><path data-name="Path 368" d="M231.143 71.112a4.726 4.726 0 0 1 1.687 3.715h4.189a12.8 12.8 0 0 0-.622-1.215c-.6-.927-1.025-1.62-1.688-2.5l-.119-.164-.064-.085c-.047-.062-.085-.127-.125-.189l-3.649-.013a1.817 1.817 0 0 0 .391.452" fill="#469ed7"/><path data-name="Path 369" d="M190.122 49.022q.195.9.473 1.792a3.846 3.846 0 0 1 .151 1.3 2.588 2.588 0 0 1-.974 1.665 6.38 6.38 0 0 1-1.385.493 3.1 3.1 0 0 0 4.156.019 5.93 5.93 0 0 0 .595-.656 16.013 16.013 0 0 0 .956-1.605l.154-.3a14.769 14.769 0 0 0 1.5-5.892l-6.053.051a19.9 19.9 0 0 0 .423 3.136" fill="#27a6df"/><path data-name="Path 370" d="M194.156 68.655c.22-.846.457-1.685.72-2.512a22.7 22.7 0 0 1 2.7-5.859c.155-.231.521-.725.521-.725a12.953 12.953 0 0 1 3.1-2.96l.059-10.809-2.8.024.021.385a9.774 9.774 0 0 1-.047 1.579l-.008.077a13.069 13.069 0 0 1-.755 3.125s-.151.41-.231.611a15.016 15.016 0 0 1-1.59 2.953s-.01.013-.015.018c-.2.294-.723.962-.723.962-.239.3-.486.585-.747.866a1.078 1.078 0 0 0-.307.731c.32 2.734-.694 5.192-1.488 7.693-.082.257-.162.513-.236.771-.335 1.148-1.063 3.433-1.063 3.433l-.016.051c-.069.21-.117.37-.187.581a2.506 2.506 0 0 0-.145 1.151l3.12-.037a4.913 4.913 0 0 1 .117-2.111" fill="#27a6df"/><path data-name="Path 371" d="m190.918 70.803 3.12-.037Z" fill="#27a6df"/><path data-name="Path 372" d="m201.194 56.599.452-.3.965-.611a18.657 18.657 0 0 0 2.939-2.227s.4-.388.584-.6c.582-.643 1.1-1.347 1.672-2.058a5.81 5.81 0 0 1 2.964 4l.113 1.075c0 .127-.013.526-.013.526a8.9 8.9 0 0 1-.1.915s-.268 1.342-.415 2c-.277 1.252-.242 1.448.781 2.218.446.335.877.688 1.3 1.045l.045.037a26.091 26.091 0 0 1 4.983 5.6 13.169 13.169 0 0 1 1.19 2.394l2.659.01h1.316q-.7-.989-1.407-1.977c-1.7-2.373-3.412-4.733-5.115-7.1a1.946 1.946 0 0 1-.354-1.757 3 3 0 0 1 .131-.329c.167-.33.494-1.081.494-1.081a30.209 30.209 0 0 0 1.446-4.87s.382-1.621.6-2.424c.058-.223.119-.446.192-.721 2.043.348 4.029.606 6.077.773 0 0 1.7.125 2.528.16a55.32 55.32 0 0 0 5.365-.031l-.058-5.213-31.271-.263Z" fill="#3c7abd"/><path data-name="Path 373" d="M231.855 66.902a14.53 14.53 0 0 1-.983 2 1.829 1.829 0 0 0-.119 1.762l2.039.008-.07-6.524-.13.418-.738 2.339" fill="#3c7abd"/><path data-name="Path 374" d="M218.652 70.622a.161.161 0 0 1 .006.016l2.653-.008Z" fill="#3c7abd"/><path data-name="Path 375" d="M232.582 51.267c.837-.043 1.674-.1 2.512-.18 0 0 .52-.045.781-.074.028.109.064.172.055.221l-.24 1.133-1.143 5.292s-.212.9-.324 1.329c-.449 1.73-.967 3.446-1.5 5.155l.069 6.524h1.608a2.474 2.474 0 0 1-.173-2.428c.616-1.377 1.9-4.184 1.9-4.184a59.007 59.007 0 0 1 2.531-4.877c.34-.582.988-1.589 1.125-1.8.233-.353.468-.705.715-1.052a41.165 41.165 0 0 0 2.424-4.322 2.1 2.1 0 0 1 2.607-.872 15.415 15.415 0 0 0 1.858.77 18.306 18.306 0 0 0 2.756.706s1.647.253 2.488.322a28.855 28.855 0 0 1 3.808.688 1 1 0 0 1 .747 1.284c-.179.948-.364 1.892-.548 2.839q-.207 1.066-.407 2.134s-.181.931-.268 1.4a1 1 0 0 1-.777.89 2.8 2.8 0 0 0-1.633 1.18c-.042.063-.084.123-.125.19a.855.855 0 0 1-.583.325c-.484.048-.973.016-1.517.016v3.993a18.77 18.77 0 0 0 2.712-.813 7.748 7.748 0 0 0 3.24-2.746 16.185 16.185 0 0 0 .976-2.007c.379-1.132.762-2.262 1.131-3.4 0 0 .269-.827.4-1.243a64.73 64.73 0 0 0 1.093-3.827c.109-.442.215-.885.311-1.329a1.694 1.694 0 0 0-.842-1.912 31.523 31.523 0 0 0-3.21-1.645 27.439 27.439 0 0 0-4.2-1.488 25.563 25.563 0 0 0-2.685-.556 2.354 2.354 0 0 1-.24-.071c.114-.349.236-.7.357-1.04l.053-.155-17.909.41Z" fill="#27a6df"/><path data-name="Path 376" d="M201.277 33.87a5.3 5.3 0 0 1 .832.2c-.276.362-.558.715-.836 1.073l-.021 10.647 31.272.265-.454-14.175-30.792.631Z" fill="#3661aa"/><path data-name="Path 377" d="M258.683 31.707c.22.725.633 2.4.633 2.4a3.218 3.218 0 0 1 .093.836c-.025.391-.083.79-.09 1.182a3.275 3.275 0 0 0 .1.943 1 1 0 0 0 .2.406l.042.055a.464.464 0 0 0 .162.133 14.213 14.213 0 0 0 1.951.783l.13.037h.007c.106.03.21.066.317.09a2.523 2.523 0 0 0 1.211-.038l-.44-.015.44.015a2.641 2.641 0 0 0 1.949-2.273c.119-1.021.218-1.777.356-2.8l.035-.271c.095-.693.2-1.384.3-2.075l-7.513.168.128.425" fill="#469ed7"/><path data-name="Path 378" d="m232.525 46.053 17.907-.409c.2-.564.39-1.129.552-1.7.051-.18.1-.36.147-.542.05-.213.158-.729.158-.729a23.524 23.524 0 0 0 .442-3.095 13.774 13.774 0 0 1 1.132-3.954l.079-.192a22.261 22.261 0 0 1 1.589-3.253l.072-.125c.136-.231.275-.462.417-.691l-22.95.518Z" fill="#469ed7"/><path data-name="Path 379" d="M211.149 29.138a11.293 11.293 0 0 1-.451 1.1 15.336 15.336 0 0 0-1.631.229l-.047.01a14.3 14.3 0 0 0-3.455 1.148c-.087.042-.319.133-.319.133a5.5 5.5 0 0 1-3.407.085c-.152-.03-.4-.064-.563-.087v.751l30.793-.63-.015-5.219-14.276.032a19.749 19.749 0 0 0 .272 2.7 2.67 2.67 0 0 0 .966 1.732c-1.142-.2-2.294-.414-3.132-.576q-.669-.128-1.334-.215a5.585 5.585 0 0 0-.624-1.38.979.979 0 0 1-.293-.728 15.563 15.563 0 0 1 .765-1.528h-2.222c-.1.406-.205.829-.3 1.281a4.752 4.752 0 0 0-.728 1.153m2.184.96c.05-.244.181-.33.269-.33.058 0 .253.3.382.5a17.06 17.06 0 0 0-.672-.056c.006-.038.012-.077.021-.117" fill="#469ed7"/><path data-name="Path 380" d="M201.26 35.161c-.257.33-.507.664-.739 1.01a14.2 14.2 0 0 0-1.1 1.956 11.688 11.688 0 0 0-1.056 4.138 28.313 28.313 0 0 0 .088 3.545l2.8-.022Z" fill="#2c4a98"/><path data-name="Path 381" d="M195.852 42.767a19.666 19.666 0 0 1 .9-4.983l.056-.167.022-.067a8.053 8.053 0 0 1 1.142-2.381 3.283 3.283 0 0 1 3.29-1.3v-2.113l-.136-.017-.061-.008a9.332 9.332 0 0 0-4.345.669 9.775 9.775 0 0 0-4.462 3.263s-.366.514-.532.786a11.535 11.535 0 0 0-.948 1.928 15.2 15.2 0 0 0-.675 2.314 20.079 20.079 0 0 0-.4 5.193l6.052-.051c.011-.231.02-.464.021-.7 0-.774.079-2.37.079-2.37" fill="#2c4a98"/><path data-name="Path 382" d="M267.362 22.137a1.1 1.1 0 0 1 .446-.672c.949-.593 1.93-1.137 2.889-1.831-.976-.107-1.949-.264-2.927-.312h-.061c-1.1-.047-2.212.074-3.314.011a15.951 15.951 0 0 1-2.234-.423c-.127-.024-.25-.042-.377-.066a15.4 15.4 0 0 0-5.959-.018l-.1.019a15.407 15.407 0 0 0-5.2 2.115s-1.252.848-1.859 1.342l-.489.415c-.059.051-.061.048-.122.1a344.98 344.98 0 0 1-3.994 3.375c-1.061.882-2.081 1.72-3.141 2.6a3.16 3.16 0 0 1-.956.513 10.088 10.088 0 0 1-.992.346l.224-.662c.268-.779.262-1.76-1.321-2.392-.308-.123-1.533-.524-1.967-.643s-1.215-.325-1.829-.455-.844-.231-1.318-.329a8.722 8.722 0 0 0-.709-.119l.018 6.827 22.948-.517q.651-1.049 1.39-2.056c.024.013.047.024.069.039.537.3 1.057.574 1.555.881a.84.84 0 0 1 .329.428q.092.313.188.625l7.511-.17c.242-1.69.489-3.38.728-5.07.182-1.3.349-2.609.566-3.905" fill="#3661aa"/><path data-name="Path 383" d="M214.426 26.651c.3-.667 1.88-4.308 2-4.731s.242-.546.425-1.032c.093-.249.507-.994.886-1.661a8.926 8.926 0 0 0 .406 1.013 2.521 2.521 0 0 1 0 2.591 11.911 11.911 0 0 0-.361 2.836c0 .293-.008.63 0 1.026l14.276-.032v-1.608a6.969 6.969 0 0 0-.9-.056c-.97 0-1.158-.406-1.255-.505s-.021-.207 0-.494-.325-.455-.622-.8a7.484 7.484 0 0 0-.811-.89 10 10 0 0 1-.859-1.018c-.268-.307-.949-1.078-1.217-1.473s-.869-1.255-1.186-1.69-.475-.553-.553-.712a.717.717 0 0 1 .07-.794 2.291 2.291 0 0 0 .372-1.675 3.893 3.893 0 0 0-.739-1.525c-.465-.657-.853-1.438-.94-1.563a2.894 2.894 0 0 1-.247-1.166c-.019-.317-.049-.712-.088-1.008s-.2-.5-.208-.683.208-.2.337-.06a1.157 1.157 0 0 0 .662.258.74.74 0 0 0 .594-.277c.168-.2.287-.611.415-.779s.611-.319.84-.5a1.128 1.128 0 0 0 .369-.653c.074-.252.26-.549.334-.814s.264-.255.37-.372.061-.324.075-.532a1.085 1.085 0 0 1 .162-.534 3.848 3.848 0 0 0 .3-1.384 3.026 3.026 0 0 0-.151-.749 9.393 9.393 0 0 0-1.042-1.294 8.948 8.948 0 0 0-.771-.771 2.6 2.6 0 0 0-1.543-.534 3.122 3.122 0 0 0-.617.054 1.61 1.61 0 0 0-.138.028 8.423 8.423 0 0 0-3.16 1.406 11.781 11.781 0 0 0-3.418 2.931 7.676 7.676 0 0 0-1.159 2.914 3.92 3.92 0 0 1-.625 2.187 4.382 4.382 0 0 0-.765 2.322 6.416 6.416 0 0 0 1.334 2.547 1.638 1.638 0 0 1 .122 1.942 4.274 4.274 0 0 1-.949 1.312 1.867 1.867 0 0 0 1.08.053 28.586 28.586 0 0 0-1.223 3.575 19.027 19.027 0 0 0-2.124 5.427h2.221c.008-.017.018-.034.024-.05m10.518-5.372a8.437 8.437 0 0 1 .752.474 3.644 3.644 0 0 1 .8.6 3.19 3.19 0 0 1 .534 1.018 4.878 4.878 0 0 0 .317.752c.01.109-.09.278-.189.287a1.552 1.552 0 0 1-.949-.258 2.574 2.574 0 0 1-.81-1.365 2.571 2.571 0 0 0-.455-1.1c-.128-.188-.06-.257 0-.415" fill="#2c4a98"/><g data-name="Group 550" opacity=".11" style="mix-blend-mode:multiply;isolation:isolate"><g data-name="Group 549"><g data-name="Group 548" clip-path="url(#c)" transform="translate(177.406 -12.137)"><g data-name="Group 547"><g data-name="Group 546" clip-path="url(#d)" transform="translate(11.04 12.143)"><path data-name="Rectangle 152" transform="rotate(-8.5 5.675 74.5)" fill="url(#e)" d="M0 0h92.558v86.271H0z"/></g></g></g></g></g></g></g></g></svg>